Coordinates
version=1
nRows=19
nColumns=24
inDegrees=yes

Units are S.I. units (second, meters, Newtons, ...)
Angles are in degrees.

endheader
time	pelvis_tilt	pelvis_list	pelvis_rotation	pelvis_tx	pelvis_ty	pelvis_tz	hip_flexion_r	hip_adduction_r	hip_rotation_r	knee_angle_r	ankle_angle_r	subtalar_angle_r	mtp_angle_r	hip_flexion_l	hip_adduction_l	hip_rotation_l	knee_angle_l	ankle_angle_l	subtalar_angle_l	mtp_angle_l	lumbar_extension	lumbar_bending	lumbar_rotation
      1.58750000	      4.93793452	      5.76785322	     -3.62805664	      0.40501215	      1.07720164	      0.30998849	     12.42630011	     -7.29659671	      2.18250098	    -61.08761066	      0.25468570	    -12.42745443	     12.20392235	     -1.66714324	     11.75674056	     -1.69338920	     -1.40957186	     -4.11240761	     -6.82242547	      3.59730261	     -0.19938692	     -4.01486741	      1.30862223
      1.59166667	      4.94095127	      5.82120313	     -3.55346569	      0.40966313	      1.07751631	      0.30992310	     12.92835605	     -7.29081026	      2.36555187	    -60.69255285	      0.47164227	    -12.62625672	     12.16153121	     -2.08393262	     11.82777955	     -1.53735073	     -1.16426753	     -4.07479454	     -6.74187065	      3.58215406	     -0.24738825	     -4.04823608	      1.24989050
      1.59583333	      4.98087225	      5.90153331	     -3.42497197	      0.41419493	      1.07783126	      0.30968629	     13.38644412	     -7.34287019	      2.45007565	    -60.30797772	      1.00375726	    -13.13478225	     12.05453991	     -2.52587421	     11.94044235	     -1.37412278	     -0.93897755	     -3.95684819	     -6.68444884	      3.54043608	     -0.24125399	     -4.13633794	      1.11666134
      1.60000000	      5.02101532	      5.91991187	     -3.23333527	      0.41879124	      1.07820993	      0.30950341	     13.78575132	     -7.32464724	      2.47943134	    -59.80350703	      1.16592755	    -13.70166352	     11.41521607	     -2.98232086	     11.96275598	     -1.17054933	     -0.71863656	     -3.83500367	     -6.59161239	      3.26128975	     -0.30811618	     -4.25301318	      0.48170423
      1.60416667	      5.00382915	      5.97585617	     -3.15522084	      0.42337142	      1.07841654	      0.30948315	     14.28311782	     -7.31753779	      2.65922652	    -59.30399562	      1.42708822	    -13.81412463	     11.37222285	     -3.37543890	     12.02802742	     -1.04737386	     -0.46665937	     -3.80231650	     -6.53031345	      3.24395504	     -0.35356707	     -4.29489808	      0.47819720
      1.60833333	      5.01845401	      6.05902332	     -3.05003714	      0.42791263	      1.07862289	      0.30930753	     14.73739808	     -7.36725689	      2.77812242	    -58.80314587	      1.90106764	    -14.06502048	     11.28182452	     -3.80230020	     12.13594951	     -0.89161845	     -0.21671075	     -3.71443961	     -6.48219052	      3.20561764	     -0.32670080	     -4.36295492	      0.45870906
      1.61250000	      4.99486873	      6.11541704	     -2.95164540	      0.43250133	      1.07877768	      0.30921444	     15.21238257	     -7.37341172	      2.90948126	    -58.23401629	      2.19238701	    -14.22882650	     11.20567593	     -4.19564945	     12.20220904	     -0.74464368	      0.04398801	     -3.64774590	     -6.43091259	      3.17285308	     -0.33434371	     -4.41284782	      0.41783801
      1.61666667	      4.97842593	      6.17582075	     -2.83776111	      0.43706865	      1.07891735	      0.30910593	     15.66455538	     -7.38946572	      3.02694931	    -57.62992271	      2.48383828	    -14.39592276	     11.11706094	     -4.59486202	     12.27175100	     -0.59445606	      0.29581678	     -3.57204105	     -6.38654970	      3.13356959	     -0.32948837	     -4.48219997	      0.35812408
      1.62083333	      4.93646580	      6.22536322	     -2.72665281	      0.44163251	      1.07900996	      0.30908918	     16.12734920	     -7.38282117	      3.15947787	    -56.96342541	      2.64169132	    -14.47215175	     11.07682251	     -4.95991416	     12.31742813	     -0.50335215	      0.53989231	     -3.52990822	     -6.34588357	      3.11605040	     -0.37035304	     -4.54202973	      0.32398536
      1.62500000	      4.93882308	      6.30087771	     -2.63629867	      0.44618971	      1.07910192	      0.30896613	     16.54445989	     -7.42076336	      3.27698878	    -56.29780909	      2.90625820	    -14.61529748	     10.99994081	     -5.38978068	     12.40766967	     -0.31639779	      0.82009646	     -3.44819293	     -6.28741539	      3.08130534	     -0.31455479	     -4.61045878	      0.25211771
      1.62916667	      4.88286827	      6.35153102	     -2.41896088	      0.45073431	      1.07915188	      0.30871620	     16.97013580	     -7.45936997	      3.27867250	    -55.55605596	      3.05670145	    -14.68527199	      9.98758496	     -5.75496160	     12.44756090	      0.00390468	      1.05952529	     -3.34951187	     -6.38651119	      2.56354118	     -0.27234482	     -4.78961822	     -0.56183608
      1.63333333	      4.84852497	      6.42146281	     -2.35917676	      0.45528258	      1.07913634	      0.30875056	     17.40775644	     -7.46787561	      3.44781755	    -54.80558524	      3.19337692	    -14.73633933	      9.94511037	     -6.13110449	     12.51891225	      0.07285836	      1.32215950	     -3.32322392	     -6.32425099	      2.54351291	     -0.29450765	     -4.84724836	     -0.52205711
      1.63750000	      4.80920418	      6.49098930	     -2.28530071	      0.45983968	      1.07908606	      0.30874616	     17.83329996	     -7.48438046	      3.58841937	    -54.02073889	      3.30311346	    -14.77350957	      9.91046604	     -6.50268480	     12.58912132	      0.15059951	      1.57962139	     -3.28188570	     -6.26788807	      2.52747835	     -0.29937939	     -4.91413278	     -0.49623434
      1.64166667	      4.77484303	      6.56132083	     -2.21619447	      0.46439190	      1.07901717	      0.30874568	     18.24028378	     -7.50185118	      3.72940135	    -53.20080277	      3.39678325	    -14.80529406	      9.87120030	     -6.88346859	     12.66019780	      0.25556726	      1.84457290	     -3.22591452	     -6.20677960	      2.50905296	     -0.27628022	     -4.98692454	     -0.47573342
      1.64583333	      4.73736671	      6.63331971	     -2.14425931	      0.46894752	      1.07890937	      0.30873388	     18.63778050	     -7.52481718	      3.85455090	    -52.34667199	      3.45993848	    -14.82402638	      9.83412402	     -7.25764547	     12.73154222	      0.35341025	      2.10140705	     -3.16511359	     -6.15099342	      2.49142607	     -0.26053761	     -5.05980964	     -0.46456474
      1.65000000	      4.69304872	      6.71109036	     -2.07232733	      0.47350585	      1.07876427	      0.30872850	     19.03037908	     -7.55446915	      3.97771364	    -51.46473888	      3.49461848	    -14.83269572	      9.79922923	     -7.62300461	     12.80735077	      0.44901567	      2.35317572	     -3.10339112	     -6.09651705	      2.47466890	     -0.24288787	     -5.13663637	     -0.45934700
      1.65416667	      4.66221202	      6.79393803	     -2.00880049	      0.47808041	      1.07859696	      0.30867692	     19.39791659	     -7.59717071	      4.07876223	    -50.54771007	      3.45713451	    -14.83111974	      9.72907586	     -8.01195419	     12.89348261	      0.59986068	      2.62608987	     -2.99694070	     -6.02432409	      2.43850021	     -0.14579723	     -5.21731796	     -0.46361452
      1.65833333	      4.59789080	      6.87076450	     -1.93144155	      0.48261302	      1.07836248	      0.30872891	     19.78518932	     -7.62041298	      4.19670798	    -49.59755327	      3.45031411	    -14.82951398	      9.69183883	     -8.34059918	     12.95924332	      0.66537441	      2.84317010	     -2.94037500	     -5.98066667	      2.41922253	     -0.16171439	     -5.29928209	     -0.46948312
      1.66250000	      4.55855108	      6.95175911	     -1.87692335	      0.48722016	      1.07812180	      0.30867987	     20.13544873	     -7.66112334	      4.28664812	    -48.62190816	      3.32985919	    -14.81745968	      9.61942161	     -8.71699501	     13.04301108	      0.79245309	      3.10729012	     -2.83721507	     -5.90309808	      2.38034083	     -0.06035639	     -5.38329611	     -0.48795225
